:SAMPLES-PER-SECOND 30
:FULLY-SPECIFIED
:DEGREES
285
root  29.711 33.5239 -65.5978 5.00165 -12.9215 2.34097
RightUpLeg  -4.80678 -16.9492 -2.46742
RightLeg  10.7726 -6.1369 -0.759432
RightFoot  -1.11049 -0.00252754 0.116815
RightToes  -26.3438 -0.119571 -0.225769
Spine  4.53953 -0.758037 1.19975
Spine1  8.57769 -1.77205 2.50733
HEad  31.0414 54.5255 -7.80472
LeftShoulder1  0 -2.42657e-020 -4.95415e-022
LeftArm  -34.8154 8.23029 -88.097
LeftForeArm  54.0225 -17.7408 -3.19577
LeftHand  0.270163 -9.40192 -3.65713
RightShoulder  0 2.42657e-020 1.07489e-018
RightArm  -49.6197 -18.7369 77.0371
RightForeArm  52.5192 16.7916 3.01643
RightHand  -0.87783 22.6849 -4.00528
LeftUpLeg  -12.4834 -12.8561 8.33006
LeftLeg  19.0227 -12.7208 -3.45918
LeftFoot  3.84253 0.0334845 -1.04941
LeftToes  -29.141 8.72033e-007 1.17809e-007
286
root  29.4888 33.5008 -65.8328 4.8663 -11.777 2.36428
RightUpLeg  -4.77886 -17.0124 -1.94072
RightLeg  10.8043 -7.16813 -0.890499
RightFoot  -1.48643 -0.00264867 0.173451
RightToes  -25.2917 -0.112879 -0.217948
Spine  4.57352 -0.696059 1.46166
Spine1  8.59987 -1.65547 2.97428
HEad  30.5637 54.4562 -8.24074
LeftShoulder1  0 -2.42657e-020 -4.95415e-022
LeftArm  -32.4608 8.04135 -89.5649
LeftForeArm  54.2775 -18.889 -3.41973
LeftHand  0.254536 -10.06 -3.26349
RightShoulder  0 2.42657e-020 1.07489e-018
RightArm  -49.1625 -17.8853 75.4708
RightForeArm  52.4923 16.3811 2.93777
RightHand  -0.964077 22.4006 -4.49725
LeftUpLeg  -12.7077 -11.601 8.32736
LeftLeg  18.8967 -11.9494 -3.2252
LeftFoot  4.18438 0.0359468 -1.08159
LeftToes  -28.5709 8.72033e-007 1.17809e-007
287
root  29.3083 33.4971 -66.042 4.6954 -10.5463 2.49322
RightUpLeg  -4.937 -17.0789 -1.59488
RightLeg  11.2531 -8.29173 -1.09498
RightFoot  -1.96297 -0.00196596 0.262888
RightToes  -24.1585 -0.105833 -0.209388
Spine  4.60437 -0.737924 1.6946
Spine1  8.62607 -1.71929 3.32714
HEad  30.1956 54.6246 -8.48887
LeftShoulder1  0 -2.42657e-020 -4.95415e-022
LeftArm  -30.4513 7.93632 -90.9044
LeftForeArm  54.9451 -19.7496 -3.58873
LeftHand  0.232639 -10.5649 -2.88757
RightShoulder  0 2.42657e-020 1.07489e-018
RightArm  -49.4509 -16.6037 73.9613
RightForeArm  52.6881 15.9825 2.8613
RightHand  -0.994253 22.0793 -4.72426
LeftUpLeg  -12.8682 -9.9451 7.98087
LeftLeg  18.7462 -10.8674 -2.90719
LeftFoot  4.6414 0.0384999 -1.09646
LeftToes  -27.3904 8.72033e-007 1.17809e-007
288
root  29.1661 33.5058 -66.2161 4.51826 -9.3284 2.70371
RightUpLeg  -5.19502 -17.4961 -1.43555
RightLeg  11.9376 -9.13439 -1.31608
RightFoot  -2.35383 -0.00061139 0.347892
RightToes  -23.3872 -0.101135 -0.203483
Spine  4.61494 -0.799172 1.86705
Spine1  8.60589 -1.81229 3.55282
HEad  30.2542 54.8246 -8.2247
LeftShoulder1  0 -2.42657e-020 -4.95415e-022
LeftArm  -28.5779 7.81635 -91.8982
LeftForeArm  55.7847 -20.2841 -3.69381
LeftHand  0.262038 -11.3518 -3.00782
RightShoulder  0 2.42657e-020 1.07489e-018
RightArm  -50.2425 -15.1539 72.6345
RightForeArm  52.8741 15.6205 2.7921
RightHand  -1.04856 21.8258 -5.06601
LeftUpLeg  -12.9869 -6.88119 7.26863
LeftLeg  18.6612 -9.95717 -2.65106
LeftFoot  5.2335 0.0432361 -1.13234
LeftToes  -26.4595 8.72033e-007 1.17809e-007
289
root  29.0614 33.5208 -66.3577 4.3078 -8.28946 2.95582
RightUpLeg  -5.35352 -17.6085 -1.3882
RightLeg  12.4867 -10.1374 -1.55783
RightFoot  -2.66188 0.00143313 0.439348
RightToes  -22.6512 -0.0967261 -0.19779
Spine  4.60111 -0.80125 1.95131
Spine1  8.54984 -1.77202 3.59451
HEad  30.4059 55.0037 -7.78278
LeftShoulder1  0 -2.42657e-020 -4.95415e-022
LeftArm  -27.1287 7.84218 -92.5403
LeftForeArm  56.7674 -20.7267 -3.78075
LeftHand  0.299645 -12.1766 -3.18045
RightShoulder  0 2.42657e-020 1.07489e-018
RightArm  -50.7113 -13.7756 71.6227
RightForeArm  52.3352 15.4596 2.7626
RightHand  -1.15304 21.2878 -5.76126
LeftUpLeg  -12.989 -2.85697 6.27099
LeftLeg  18.8596 -9.43364 -2.54812
LeftFoot  4.80946 0.0382565 -1.01009
LeftToes  -22.6499 8.72033e-007 1.17809e-007
290
root  28.9958 33.5424 -66.4661 4.04376 -7.35282 3.1882
RightUpLeg  -5.30519 -18.0532 -1.44462
RightLeg  12.794 -10.8194 -1.72041
RightFoot  -2.87966 0.00335974 0.51134
RightToes  -22.0338 -0.0928451 -0.19297
Spine  4.59038 -0.719832 1.97872
Spine1  8.51543 -1.56833 3.55232
HEad  30.5457 55.063 -7.5043
LeftShoulder1  0 -2.42657e-020 -4.95415e-022
LeftArm  -26.0424 7.98755 -92.9686
LeftForeArm  57.3884 -21.186 -3.87233
LeftHand  0.317371 -12.5744 -3.25174
RightShoulder  0 2.42657e-020 1.07489e-018
RightArm  -51.0435 -12.7184 71.0056
RightForeArm  50.7926 15.859 2.84122
RightHand  -1.25843 20.6252 -6.53996
LeftUpLeg  -12.8047 -0.0316751 5.18764
LeftLeg  19.5307 -8.30001 -2.34906
LeftFoot  3.64415 0.0229337 -0.725787
LeftToes  -22.0465 8.72033e-007 1.17809e-007
291
root  28.9419 33.5716 -66.5487 3.75065 -6.4722 3.29019
RightUpLeg  -5.03679 -18.6727 -1.48563
RightLeg  12.839 -11.0853 -1.77096
RightFoot  -2.94496 0.00417693 0.54017
RightToes  -21.5011 -0.0899836 -0.18878
Spine  4.56218 -0.534222 1.98462
Spine1  8.4633 -1.17665 3.53589
HEad  30.7088 55.0532 -7.3585
LeftShoulder1  0 -2.42657e-020 -4.95415e-022
LeftArm  -25.4564 8.18637 -93.2711
LeftForeArm  57.1149 -21.5439 -3.94573
LeftHand  0.306106 -12.4356 -3.18076
RightShoulder  0 2.42657e-020 1.07489e-018
RightArm  -49.6579 -12.459 70.774
RightForeArm  47.2348 17.2099 3.10616
RightHand  -1.38413 19.5609 -7.64936
LeftUpLeg  -12.424 2.21521 4.18397
LeftLeg  20.5683 -7.24424 -2.1946
LeftFoot  2.84595 0.0132585 -0.533744
LeftToes  -21.6936 8.72033e-007 1.17809e-007
